HIERARCHY
ROOT hip
{
	OFFSET 0.000000 0.000000 0.000000 
	CHANNELS 6 Xposition Yposition Zposition Xrotation Zrotation Yrotation
	JOINT abdomen
	{
		OFFSET 0.000000 3.402643 0.000000 
		CHANNELS 3 Xrotation Zrotation Yrotation
		JOINT chest
		{
			OFFSET 0.000000 8.438565 -0.680529 
			CHANNELS 3 Xrotation Zrotation Yrotation
			JOINT neck
			{
				OFFSET 0.000000 10.207942 -0.272212 
				CHANNELS 3 Xrotation Zrotation Yrotation
				JOINT head
				{
					OFFSET 0.000000 3.130431 0.000000 
					CHANNELS 3 Xrotation Zrotation Yrotation
					End Site
					{
						OFFSET 0.000000 3.130435 0.000000 
					}
				}
			}
			JOINT lCollar
			{
				OFFSET 3.470700 6.669187 -0.816635 
				CHANNELS 3 Yrotation Zrotation Xrotation
				JOINT lShldr
				{
					OFFSET 3.198488 0.000000 0.000000 
					CHANNELS 3 Zrotation Yrotation Xrotation
					JOINT lForeArm
					{
						OFFSET 10.139888 0.000000 0.000000 
						CHANNELS 3 Yrotation Zrotation Xrotation
						JOINT lHand
						{
							OFFSET 8.370511 0.000000 0.000000 
							CHANNELS 3 Zrotation Yrotation Xrotation
							End Site
							{
								OFFSET 4.083176 0.000000 0.000000 
							}
						}
					}
				}
			}
			JOINT rCollar
			{
				OFFSET -3.470700 6.669187 -0.816635 
				CHANNELS 3 Yrotation Zrotation Xrotation
				JOINT rShldr
				{
					OFFSET -3.198488 0.000000 0.000000 
					CHANNELS 3 Zrotation Yrotation Xrotation
					JOINT rForeArm
					{
						OFFSET -10.139888 0.000000 0.000000 
						CHANNELS 3 Yrotation Zrotation Xrotation
						JOINT rHand
						{
							OFFSET -8.370511 0.000000 0.000000 
							CHANNELS 3 Zrotation Yrotation Xrotation
							End Site
							{
								OFFSET -4.083176 0.000000 0.000000 
							}
						}
					}
				}
			}
		}
	}
	JOINT lThigh
	{
		OFFSET 5.308129 -1.633274 1.361059 
		CHANNELS 3 Xrotation Zrotation Yrotation
		JOINT lShin
		{
			OFFSET -2.041588 -20.007561 0.000000 
			CHANNELS 3 Xrotation Zrotation Yrotation
			JOINT lFoot
			{
				OFFSET 0.000000 -19.190928 -1.224953 
				CHANNELS 3 Xrotation Yrotation Zrotation
				End Site
				{
					OFFSET 0.000000 -2.449906 4.627600 
				}
			}
		}
	}
	JOINT rThigh
	{
		OFFSET -5.308129 -1.633274 1.361059 
		CHANNELS 3 Xrotation Zrotation Yrotation
		JOINT rShin
		{
			OFFSET 2.041588 -20.007561 0.000000 
			CHANNELS 3 Xrotation Zrotation Yrotation
			JOINT rFoot
			{
				OFFSET 0.000000 -19.190928 -1.224953 
				CHANNELS 3 Xrotation Yrotation Zrotation
				End Site
				{
					OFFSET 0.000000 -2.449906 4.627600 
				}
			}
		}
	}
}
MOTION
Frames: 18
Frame Time: 0.016667
-0.524082 43.283604 0.802994 0.944823 -7.137710 11.903800 -17.415501 -0.059222 -1.463270 27.359600 -3.907920 -0.846935 5.594856 0.823266 -9.456783 8.836790 7.512550 -1.633190 2.000000 -2.000000 0.000000 -60.822102 4.247620 -150.214005 26.660500 -0.337029 0.061405 0.062524 -0.050407 -155.231995 -2.000000 2.000000 0.000000 68.489998 -11.278100 -159.626007 -18.359600 0.344605 0.043065 -0.056694 -0.017287 -127.214996 -14.252479 3.798152 3.128098 34.971310 2.636426 2.563846 -23.831446 3.285159 1.131965 -12.413115 11.632314 -9.077016 30.544336 -2.114002 -2.553174 -22.740019 -10.224201 -5.180595 
-0.537846 43.283604 0.800040 0.944803 -7.127950 11.923500 -17.405899 -0.070980 -1.439060 27.369699 -3.946630 -0.842460 5.569126 0.820703 -9.505274 8.836920 7.522280 -1.642140 2.000000 -2.000000 0.000000 -60.694698 4.258090 -149.871994 26.767900 -0.336914 0.061634 0.062802 -0.051237 -155.544998 -2.000000 2.000000 0.000000 68.519402 -11.326900 -159.626007 -18.369301 0.344598 0.043088 -0.056685 -0.017233 -127.234001 -14.263824 3.799776 3.109032 34.971966 2.626365 2.560826 -23.807383 3.316489 1.150891 -12.415751 11.629200 -9.134894 30.543919 -2.114536 -2.543591 -22.731989 -10.174004 -5.147640 
-0.553280 43.283863 0.795436 0.944823 -7.137710 11.942800 -17.415600 -0.071002 -1.439130 27.360001 -3.956410 -0.842943 5.560121 0.839644 -9.551317 8.827320 7.541870 -1.651570 2.000000 -2.000000 0.000000 -60.655499 4.307300 -149.686005 26.826500 -0.336851 0.061758 0.062951 -0.051677 -155.710999 -2.000000 2.000000 0.000000 68.558502 -11.375700 -159.636002 -18.359600 0.344605 0.043065 -0.056704 -0.017341 -127.195000 -14.357200 3.834201 3.090594 35.049427 2.639313 2.563385 -23.799957 3.302948 1.130993 -12.421643 11.652761 -9.154941 30.505135 -2.115108 -2.554303 -22.708324 -10.186442 -5.130822 
-0.567949 43.284245 0.791045 0.954705 -7.157220 11.951100 -17.415600 -0.083748 -1.445350 27.350300 -3.966190 -0.843422 5.579171 0.861237 -9.583863 8.827450 7.551600 -1.650760 2.000000 -2.000000 0.000000 -60.567200 4.347050 -149.354996 26.943701 -0.336724 0.062008 0.063244 -0.052531 -156.033005 -2.000000 2.000000 0.000000 68.607399 -11.404900 -159.705002 -18.320499 0.344634 0.042977 -0.056754 -0.017637 -127.087997 -14.333381 3.853490 3.069390 35.010361 2.637853 2.563741 -23.801874 3.289083 1.122061 -12.431561 11.686703 -9.187064 30.465527 -2.116617 -2.545743 -22.687479 -10.180763 -5.136250 
-0.582081 43.283863 0.785914 0.954726 -7.166980 11.960700 -17.425200 -0.077880 -1.457490 27.340599 -3.975960 -0.843898 5.577436 0.885480 -9.602912 8.837430 7.561210 -1.638900 2.000000 -2.000000 0.000000 -60.557201 4.376620 -149.218002 26.982700 -0.336682 0.062091 0.063352 -0.052841 -156.149994 -2.000000 2.000000 0.000000 68.656303 -11.434000 -159.792999 -18.252199 0.344685 0.042822 -0.056816 -0.017987 -126.960999 -14.417097 3.883120 3.060632 35.068523 2.640709 2.553751 -23.781889 3.287077 1.131420 -12.445406 11.700921 -9.200823 30.484545 -2.119169 -2.536315 -22.694901 -10.191837 -5.131530 
-0.595729 43.283863 0.780324 0.954746 -7.176750 11.970300 -17.425200 -0.068563 -1.460420 27.330700 -3.956650 -0.850687 5.584480 0.901577 -9.592341 8.827580 7.561340 -1.640180 2.000000 -2.000000 0.000000 -60.645302 4.376280 -149.384003 26.904600 -0.336767 0.061925 0.063172 -0.052324 -155.955002 -2.000000 2.000000 0.000000 68.685600 -11.453400 -159.860992 -18.203300 0.344722 0.042711 -0.056863 -0.018257 -126.862999 -14.381447 3.908424 3.038470 35.030315 2.632154 2.561521 -23.783749 3.269615 1.131525 -12.452294 11.723300 -9.193729 30.466780 -2.102567 -2.551906 -22.691099 -10.177402 -5.122659 
-0.608779 43.284245 0.774603 0.954726 -7.166980 11.970400 -17.425100 -0.071991 -1.469560 27.310900 -3.937410 -0.847047 5.565202 0.890782 -9.576067 8.827450 7.551600 -1.631230 2.000000 -2.000000 0.000000 -60.792301 4.355990 -149.755005 26.738600 -0.336945 0.061571 0.062819 -0.051289 -155.563995 -2.000000 2.000000 0.000000 68.695396 -11.472800 -159.880997 -18.174000 0.344744 0.042645 -0.056882 -0.018364 -126.823997 -14.391871 3.907321 3.038970 35.030422 2.630420 2.561156 -23.775084 3.268842 1.107965 -12.459530 11.730000 -9.193823 30.456083 -2.117488 -2.555897 -22.683559 -10.170678 -5.117122 
-0.620996 43.284763 0.768234 0.954705 -7.157220 11.980400 -17.415400 -0.062650 -1.472410 27.301001 -3.918100 -0.844086 5.554206 0.893434 -9.562569 8.817470 7.542000 -1.633320 2.000000 -2.000000 0.000000 -60.900002 4.335930 -150.009003 26.640900 -0.337050 0.061363 0.062576 -0.050563 -155.291000 -2.000000 2.000000 0.000000 68.705200 -11.512000 -159.841995 -18.164301 0.344751 0.042623 -0.056882 -0.018364 -126.823997 -14.402243 3.906411 3.039453 35.030457 2.629899 2.560986 -23.763702 3.275978 1.123565 -12.473613 11.728762 -9.197284 30.475555 -2.118837 -2.555883 -22.700888 -10.157221 -5.111051 
-0.632604 43.285278 0.762026 0.954685 -7.147460 11.980500 -17.415400 -0.062650 -1.472410 27.281300 -3.908560 -0.851376 5.544567 0.888037 -9.554432 8.807620 7.542130 -1.634600 2.000000 -2.000000 0.000000 -60.919498 4.326230 -149.979004 26.660500 -0.337029 0.061405 0.062576 -0.050563 -155.291000 -2.000000 2.000000 0.000000 68.714897 -11.551200 -159.764008 -18.193600 0.344729 0.042689 -0.056858 -0.018230 -126.873001 -14.413363 3.905831 3.030246 35.020168 2.637557 2.563450 -23.755934 3.260766 1.113391 -12.482915 11.733152 -9.218419 30.466066 -2.107850 -2.543532 -22.692751 -10.151718 -5.106351 
-0.643041 43.285278 0.755555 0.954685 -7.147460 11.970800 -17.415400 -0.062650 -1.472410 27.281300 -3.898860 -0.850234 5.552849 0.901484 -9.557210 8.817470 7.542000 -1.633320 2.000000 -2.000000 0.000000 -60.889999 4.336320 -149.822998 26.728800 -0.336956 0.061551 0.062680 -0.050874 -155.408005 -2.000000 2.000000 0.000000 68.705002 -11.590500 -159.656006 -18.232599 0.344700 0.042778 -0.056816 -0.017987 -126.960999 -14.416110 3.926316 3.048117 35.040344 2.628319 2.560339 -23.749361 3.232779 1.106400 -12.494764 11.734504 -9.229760 30.475136 -2.113101 -2.534963 -22.689167 -10.140906 -5.088403 
-0.652887 43.285278 0.748656 0.954665 -7.137690 11.970900 -17.405600 -0.062626 -1.472330 27.271400 -3.889240 -0.848430 5.573610 0.898831 -9.570707 8.817470 7.542000 -1.633320 2.000000 -2.000000 0.000000 -60.870300 4.326890 -149.656998 26.797199 -0.336882 0.061696 0.062784 -0.051185 -155.524994 -2.000000 2.000000 0.000000 68.705002 -11.620100 -159.559006 -18.271700 0.344671 0.042866 -0.056773 -0.017745 -127.049004 -14.415357 3.926029 3.057761 35.029625 2.636702 2.553287 -23.759237 3.232593 1.106618 -12.511651 11.745176 -9.223927 30.476107 -2.109985 -2.553575 -22.674997 -10.133721 -5.058711 
-0.662771 43.285660 0.741150 0.964506 -7.137670 11.950200 -17.405600 -0.053308 -1.475260 27.261499 -3.879620 -0.846630 5.601290 0.917675 -9.581621 8.837300 7.551480 -1.629940 2.000000 -2.000000 0.000000 -60.850498 4.327210 -149.501007 26.865499 -0.336809 0.061842 0.062889 -0.051496 -155.641998 -2.000000 2.000000 0.000000 68.695198 -11.649500 -159.470993 -18.301001 0.344649 0.042933 -0.056741 -0.017556 -127.116997 -14.430586 3.944008 3.057606 35.030136 2.634835 2.562420 -23.741388 3.218898 1.097667 -12.516118 11.755144 -9.224197 30.465021 -2.118444 -2.536579 -22.660086 -10.134046 -5.080614 
-0.672530 43.286179 0.733094 0.964527 -7.147430 11.930500 -17.405600 -0.043989 -1.478180 27.251699 -3.869990 -0.844832 5.640222 0.923072 -9.589757 8.847280 7.561080 -1.627850 2.000000 -2.000000 0.000000 -60.840698 4.327390 -149.412994 26.894800 -0.336777 0.061904 0.062951 -0.051677 -155.710999 -2.000000 2.000000 0.000000 68.695099 -11.659500 -159.403000 -18.330299 0.344627 0.042999 -0.056717 -0.017422 -127.166000 -14.453590 3.961352 3.086147 35.039276 2.638837 2.553744 -23.731834 3.216667 1.095882 -12.519189 11.766869 -9.205055 30.436367 -2.107167 -2.534304 -22.640116 -10.130688 -5.076207 
-0.681592 43.286816 0.725521 0.964527 -7.147430 11.910900 -17.395901 -0.040537 -1.468950 27.241800 -3.860370 -0.843038 5.667762 0.947312 -9.608809 8.857260 7.570680 -1.625750 2.000000 -2.000000 0.000000 -60.840599 4.317730 -149.363998 26.914400 -0.336756 0.061946 0.062977 -0.051755 -155.740005 -2.000000 2.000000 0.000000 68.685303 -11.679100 -159.334000 -18.349800 0.344612 0.043043 -0.056699 -0.017314 -127.205002 -14.452878 3.966917 3.076650 35.039917 2.634969 2.562281 -23.740444 3.221928 1.110970 -12.530066 11.784448 -9.190183 30.455193 -2.119250 -2.536941 -22.644238 -10.122157 -5.070614 
-0.689349 43.287334 0.717723 0.954685 -7.147460 11.892600 -17.395901 -0.040537 -1.468950 27.241800 -3.860370 -0.843038 5.688385 0.950058 -9.630443 8.867110 7.570550 -1.624460 2.000000 -2.000000 0.000000 -60.850399 4.307980 -149.354004 26.924101 -0.336746 0.061966 0.062986 -0.051781 -155.750000 -2.000000 2.000000 0.000000 68.695000 -11.679300 -159.276001 -18.379101 0.344590 0.043110 -0.056685 -0.017233 -127.234001 -14.469614 3.976415 3.086263 35.040043 2.633084 2.561690 -23.729834 3.227459 1.113622 -12.546262 11.795929 -9.153397 30.456825 -2.105497 -2.552794 -22.619366 -10.133015 -5.064147 
-0.696196 43.287849 0.710178 0.954705 -7.157220 11.872900 -17.386200 -0.040513 -1.468880 27.251600 -3.860300 -0.833930 5.718914 0.947407 -9.643941 8.886810 7.570290 -1.630370 2.000000 -2.000000 0.000000 -60.850300 4.278710 -149.345001 26.914400 -0.336756 0.061946 0.062986 -0.051781 -155.750000 -2.000000 2.000000 0.000000 68.714500 -11.679300 -159.246002 -18.388901 0.344583 0.043132 -0.056676 -0.017179 -127.253998 -14.473872 3.994323 3.094639 35.069618 2.629790 2.560188 -23.737812 3.241246 1.122851 -12.544174 11.813503 -9.144547 30.436703 -2.107994 -2.544260 -22.611164 -10.123559 -5.068228 
-0.702037 43.288490 0.702320 0.964568 -7.166960 11.852000 -17.376400 -0.040488 -1.468800 27.251600 -3.860300 -0.833930 5.777775 0.936613 -9.627666 8.906380 7.560300 -1.628620 2.000000 -2.000000 0.000000 -60.840599 4.259200 -149.335007 26.904600 -0.336767 0.061925 0.063004 -0.051833 -155.768997 -2.000000 2.000000 0.000000 68.724297 -11.669600 -159.227005 -18.388901 0.344583 0.043132 -0.056671 -0.017152 -127.264000 -14.490956 4.008627 3.085106 35.060452 2.632257 2.580498 -23.729292 3.231451 1.116185 -12.565610 11.834032 -9.148705 30.446051 -2.115131 -2.545870 -22.626108 -10.115003 -5.063671 
-0.706884 43.289009 0.695043 0.964589 -7.176730 11.851900 -17.366600 -0.040464 -1.468720 27.261400 -3.869920 -0.835726 5.856555 0.909626 -9.586983 8.945520 7.540320 -1.634910 2.000000 -2.000000 0.000000 -60.840500 4.239740 -149.296005 26.885099 -0.336788 0.061883 0.063013 -0.051858 -155.779007 -2.000000 2.000000 0.000000 68.743797 -11.659800 -159.246002 -18.369301 0.344598 0.043088 -0.056680 -0.017206 -127.244003 -14.547444 4.023929 3.085990 35.088367 2.642585 2.563690 -23.709160 3.234530 1.117471 -12.568377 11.830913 -9.150348 30.426689 -2.111800 -2.545411 -22.610151 -10.103333 -5.055549 
